<?xml version="1.0" encoding="iso-8859-1"?>
<svg xmlns="http://www.w3.org/2000/svg"
	version="1.1"
	id="Capa_1"
	style="enable-background:new 0 0 512 512;"
	viewBox="0 0 512 512"
	x="0px"
	y="0px"
	xml:space="preserve">

<circle style="fill:#7AE5FE;" cx="256" cy="256" r="256"/>
<path style="fill:#00BED2;" d="M512,256c0-10.368-0.633-20.586-1.831-30.631L421.55,136.75l-37.407,13.202L313.905,292.81
	l-153.571,23.214l-66.029,71.987l120.708,120.708C228.359,510.867,242.046,512,256,512C397.385,512,512,397.385,512,256z"/>
<polygon style="fill:#546E7A;" points="330.746,313.733 161.625,313.733 106.896,184.233 367.477,184.233 "/>
<g>
	<polygon style="fill:#455A64;" points="367.477,184.233 255.571,184.233 255.571,313.733 330.746,313.733 	"/>
	<circle style="fill:#455A64;" cx="130.87" cy="357.13" r="47.869"/>
</g>
<path style="fill:#37474F;" d="M130.869,309.263c-0.1,0-0.198,0.007-0.297,0.007v95.723c0.1,0,0.198,0.007,0.297,0.007
	c26.437,0,47.869-21.432,47.869-47.869C178.737,330.694,157.306,309.263,130.869,309.263z"/>
<circle style="fill:#CED7DB;" cx="130.87" cy="357.13" r="21.969"/>
<path style="fill:#AFBDC4;" d="M130.869,335.163c-0.1,0-0.198,0.006-0.297,0.007v43.922c0.099,0.001,0.198,0.008,0.297,0.008
	c12.133,0,21.969-9.836,21.969-21.969S143.002,335.163,130.869,335.163z"/>
<path style="fill:#37474F;" d="M373.479,136.75l-49.642,167.733H156.843l-33.521,47.299l15.094,10.697l27.991-39.497h86.441
	l40.334,65.153c3.532,5.705,9.601,9.02,16.103,9.02c1.205,0,2.426-0.114,3.648-0.348c7.812-1.495,13.76-7.521,15.154-15.351
	l11.675-65.593l47.535-160.614h34.253v-18.5h-48.071V136.75z M309.873,378.215c-0.04,0.221-0.063,0.355-0.417,0.423
	c-0.353,0.066-0.426-0.048-0.544-0.239l-34.306-55.415h45.098L309.873,378.215z"/>
<path style="fill:#263238;" d="M373.479,136.75l-49.642,167.733h-68.265v22.9l37.61,60.752c3.532,5.705,9.601,9.02,16.103,9.02
	c1.205,0,2.426-0.114,3.648-0.348c7.812-1.495,13.76-7.521,15.154-15.351l11.675-65.593l47.535-160.614h34.253v-18.5h-48.071V136.75
	z M309.873,378.215c-0.04,0.221-0.063,0.355-0.417,0.423c-0.353,0.066-0.426-0.048-0.544-0.239l-34.306-55.415h45.098
	L309.873,378.215z"/>
</svg>
